<?xml version="1.0" encoding="utf-8"?>
<!-- Generator: Adobe Illustrator 17.1.0, SVG Export Plug-In . SVG Version: 6.00 Build 0)  -->
<!DOCTYPE svg PUBLIC "-//W3C//DTD SVG 1.1//EN" "http://www.w3.org/Graphics/SVG/1.1/DTD/svg11.dtd">
<svg version="1.1" id="Layer_1" xmlns="http://www.w3.org/2000/svg" xmlns:xlink="http://www.w3.org/1999/xlink" x="0px" y="0px"
	 viewBox="1 15.5 145.6 720" enable-background="new 1 15.5 145.6 720" xml:space="preserve">
<path d="M47,15.5c-5.7,0.6-14.1,7.3-16.5,10.9c-0.8,2-1.6,4-2.4,6c-1.2,1.9-4.1,1.3-6.1,2.5c-2.5,1.4-7.7,5.3-8.8,8.1
	c-1.1,2.6,0.4,4.9,0.2,7c-0.1,2.1-1.4,5.6-1.8,8.1C9.8,69.2,16.1,76.5,20,82.6c2,3.7,4,7.5,6.1,11.2c5.2,6.7,13.2,9.2,15.2,19.5
	c-2.8,0.4-5.7,0.9-8.5,1.3c-0.1,3.8-0.1,7.6-0.2,11.4c0.3,1.3,1.9,2.2,1.4,3.8c-0.6,2-6.7,7.2-8.3,9.1c-4.5,5.4-8.8,12.6-12.1,18.8
	c-5.8,10.9-8.4,31.1-10.8,45c-1.2,6.6-0.3,11.7-1.3,17.4c0.1,4.2,0.3,8.3,0.4,12.4c-1.5,12.2-0.9,26.9,0.7,39.2
	c0.2,3.5,0.4,7.1,0.6,10.6c1.9,7.3,3.7,14.6,5.6,21.9c0.3,8.7,0.5,17.5,0.8,26.2c0.4,6.1,0.7,12.3,1.1,18.4
	c-1,5.8-2.7,12.4-3.8,18.8c0.1,17,0.2,33.9,0.3,50.9c2.6,2.9,7.8,3.9,9,5.4c2.7,3.6,5.3,11.1,7.5,15.1c1.6,2.9-3.2,14.3-2,20.3
	c1,5.1,0.9,10.6,2.1,16.8c0.7,3.5,2.3,8.5,1.4,12.9c-0.8,4.2-2.3,9.5-1.6,13.8c1.2,5.3,2.4,10.7,3.6,16c-1.2,1-2.4,2-3.5,3
	c0.3,6.6-1.3,10-2.4,15.1c0,4,0.1,8,0.1,11.9c-1.1,5-1.7,10.4-2.9,15.4c-0.3,10.3-0.6,20.6-0.8,30.9c0,11.2,0,22.5,0,33.8
	c0.3,11.1,0.7,22.1,1,33.2c0.7,3.7,0,7.9-0.4,10.7c-1.1,6.8,2,12.6,1.1,19.2c-0.3,1.9-2.1,2.2-1.4,4.2c1.7,1.2,3.4,2.3,5,3.5
	c0.4,5.6,0.1,14.4,1.3,21.4c0,0,2.5,1.6,7.7,1.3c0.4,3.1,0.3,6.3,1.4,9.7c11.8,2.9,20.7,0.2,28.8,1.2c21,0.9,46.3,2.2,53.7,1.8
	c7.3-0.4,19.2-3.7,21.5-7.3c0.5-5-1.7-8.8-5.2-9.6c-6-1.3-7.1-1.7-8-1.5c0.1-0.2,0.2-0.1,2.8-1c1-7.3-1.9-9.8-6.4-10.5
	c-5-0.8-15-2.7-18.9-3.7c-4-1.1-7.8-3.5-10.8-5.4c-1.5-1-3.2-2.4-4.7-3.4c0.1-8-3-8.3-6.6-12.5c1.8-9.9-5.1-15.4-3.6-23.8
	c0.8-4.3,3.9-7.5,4.8-12.9c-0.1-5.8-0.2-11.6-0.3-17.4c0.3-11.1,0.7-22.2,1-33.3c1.2-9.9,3.7-17.7-1.1-25.4c1.4-1.8,3.7-2.3,5.3-3.8
	c2.7-3.8,3.8-7.8,4-13.5s5.5-18.4,4-29.6c3.6-15.4,6.8-33.1,11-47.9c2.8-10,3.6-19.1,6.4-28.2c0.9-3.2,0.6-7.8,2.8-9.7
	c13.7,0.5,27.1-10.7,24.3-27.3c-0.5-2.9,0.4-5-0.8-7.5c0.2,0,0.3,0,0.5,0c2.9-1.5,7.4-1.3,8.4-4.4c0.8-2.3-2.3-7.3-2.9-10.3
	c-3.1-14.1-2.5-28.2-8.5-38.9c-6.1-11-5.3-26.9-8.4-43.1c-0.3-3.6-0.6-7.3-0.9-10.9c-4-16.4-5.6-34.7-9.7-51.6
	c-2.6-10.7-0.8-23.3-3.9-33.1c-3.2-10.1-7.8-20.4-13.1-28.9c-2.1-3.3-5.7-6.9-6.8-10.9c-1.2-4.2,0.9-8.4,1.5-11.2
	c0.5-2.8-1.3-4.6-1-6.7c0-0.2,0-0.3,0-0.5c0.6-1.8,3.2-2.8,2.4-6.1c-1-4.1-9.8-9.6-12.6-13.1c1.2-2.2,2.5-4.4,3.7-6.6
	c1-3.8,0.7-6.5,2.3-9.2c4.5-1.2,13.3-1.3,16.5-4.1c3.2-2.8,0.7-5.3,1.3-9.1c0.3-2.1,2.3-3,3-4.5c0.8-1.7-0.8-3.2-0.7-4.4
	c0.6-0.9,1.2-1.8,1.7-2.7c0.5-2.4-1.6-3.7-0.4-5.7c1.3-1.9,4.8-2.6,6.4-4.4c-0.7-8-9.8-9.4-10.4-17.1c1.6-1,2.7-2.6,2.7-5
	c-1-1.5-5.6-10.4-4.6-13.4c0.9-2.6,3.9-4.3,1.8-8.9c-2.7-5.9-10.2-8.6-15.7-12c-3.6-2.2-8-8.9-13.9-4.2c-1.1-0.6-1.5-1.5-2.4-2.3
	c-1.6,0.8-3.5,2-4.3,2.7C62.8,16.8,53.1,19.2,47,15.5z"/>
</svg>
